<?xml version="1.0" standalone="no"?><svg xmlns="http://www.w3.org/2000/svg" viewBox="0 0 1440 320"><path fill="#ffc95b" fill-opacity="1" d="M0,320L34.3,277.3C68.6,235,137,149,206,128C274.3,107,343,149,411,160C480,171,549,149,617,165.3C685.7,181,754,235,823,240C891.4,245,960,203,1029,170.7C1097.1,139,1166,117,1234,106.7C1302.9,96,1371,96,1406,96L1440,96L1440,0L1405.7,0C1371.4,0,1303,0,1234,0C1165.7,0,1097,0,1029,0C960,0,891,0,823,0C754.3,0,686,0,617,0C548.6,0,480,0,411,0C342.9,0,274,0,206,0C137.1,0,69,0,34,0L0,0Z"></path></svg>